<svg xmlns="http://www.w3.org/2000/svg" xmlns:xlink="http://www.w3.org/1999/xlink" width="406.941" height="397.77" viewBox="0 0 406.941 397.77">
  <defs>
    <linearGradient id="linear-gradient" x1="1.13" y1="1.295" x2="0.236" y2="0.19" gradientUnits="objectBoundingBox">
      <stop offset="0" stop-color="#dae3fe"/>
      <stop offset="1" stop-color="#e9effd"/>
    </linearGradient>
    <clipPath id="clip-path">
      <rect id="Rectangle_3" data-name="Rectangle 3" width="364.231" height="266.73"/>
    </clipPath>
    <linearGradient id="linear-gradient-2" x1="2.526" y1="-0.085" x2="-5.094" y2="2.115" gradientUnits="objectBoundingBox">
      <stop offset="0" stop-color="#fdf53f"/>
      <stop offset="1" stop-color="#d93c65"/>
    </linearGradient>
    <linearGradient id="linear-gradient-3" x1="0.924" y1="-17.288" x2="0.022" y2="20.57" xlink:href="#linear-gradient-2"/>
    <linearGradient id="linear-gradient-4" x1="0.517" y1="0.311" x2="-0.175" y2="7.927" xlink:href="#linear-gradient-2"/>
    <linearGradient id="linear-gradient-5" x1="0.576" y1="-0.411" x2="0.473" y2="0.534" gradientUnits="objectBoundingBox">
      <stop offset="0" stop-color="#09005d"/>
      <stop offset="1" stop-color="#1a0f91"/>
    </linearGradient>
    <linearGradient id="linear-gradient-6" x1="0.71" y1="-0.618" x2="0.55" y2="0.237" gradientUnits="objectBoundingBox">
      <stop offset="0" stop-color="#53d8ff"/>
      <stop offset="1" stop-color="#3840f7"/>
    </linearGradient>
    <linearGradient id="linear-gradient-7" x1="0.46" y1="0.039" x2="0.699" y2="1.933" xlink:href="#linear-gradient-5"/>
    <linearGradient id="linear-gradient-8" x1="0.432" y1="-0.021" x2="0.682" y2="1.862" xlink:href="#linear-gradient-6"/>
    <linearGradient id="linear-gradient-9" x1="3.237" y1="-3.654" x2="0.258" y2="1.068" gradientUnits="objectBoundingBox">
      <stop offset="0" stop-color="#febbba"/>
      <stop offset="1" stop-color="#ff928e"/>
    </linearGradient>
    <linearGradient id="linear-gradient-10" x1="0.761" y1="-0.048" x2="0.425" y2="0.603" gradientUnits="objectBoundingBox">
      <stop offset="0" stop-color="#cb236d"/>
      <stop offset="1" stop-color="#4c246d"/>
    </linearGradient>
    <linearGradient id="linear-gradient-11" x1="1.054" y1="0.367" x2="-6.998" y2="2.474" xlink:href="#linear-gradient-9"/>
    <linearGradient id="linear-gradient-12" x1="0.936" y1="0.335" x2="0.26" y2="0.635" xlink:href="#linear-gradient-10"/>
    <linearGradient id="linear-gradient-13" x1="0" y1="0.5" x2="1" y2="0.5" xlink:href="#linear-gradient-9"/>
    <linearGradient id="linear-gradient-14" x1="0.3" y1="-0.744" x2="1.481" y2="-1.553" xlink:href="#linear-gradient-9"/>
    <linearGradient id="linear-gradient-15" x1="-7.269" y1="1.127" x2="-8.46" y2="2.418" xlink:href="#linear-gradient-9"/>
    <linearGradient id="linear-gradient-16" x1="-24.636" y1="4.948" x2="-21.978" y2="2.395" xlink:href="#linear-gradient-9"/>
    <linearGradient id="linear-gradient-17" x1="0.772" y1="-6.302" x2="0.569" y2="-1.295" xlink:href="#linear-gradient-5"/>
    <linearGradient id="linear-gradient-18" x1="0.603" y1="-13.735" x2="0.829" y2="-13.735" xlink:href="#linear-gradient-9"/>
    <linearGradient id="linear-gradient-19" y1="0.5" x2="1" y2="0.5" gradientUnits="objectBoundingBox">
      <stop offset="0" stop-color="#9cfffb"/>
      <stop offset="1" stop-color="#9bfffa"/>
    </linearGradient>
    <linearGradient id="linear-gradient-20" x1="0" y1="0.5" x2="1" y2="0.5" xlink:href="#linear-gradient-19"/>
    <linearGradient id="linear-gradient-21" x1="1.046" y1="-0.122" x2="2.927" y2="-1.956" xlink:href="#linear-gradient-5"/>
    <linearGradient id="linear-gradient-22" x1="-0.241" y1="16.395" x2="3.652" y2="-67.724" gradientUnits="objectBoundingBox">
      <stop offset="0" stop-color="#4f52ff"/>
      <stop offset="1" stop-color="#4042e2"/>
    </linearGradient>
    <linearGradient id="linear-gradient-23" x1="-0.184" y1="12.536" x2="3.039" y2="-44.766" xlink:href="#linear-gradient-22"/>
    <linearGradient id="linear-gradient-24" x1="-0.226" y1="13.497" x2="2.938" y2="-43.804" xlink:href="#linear-gradient-22"/>
    <linearGradient id="linear-gradient-25" x1="-0.328" y1="14.699" x2="3.021" y2="-43.096" xlink:href="#linear-gradient-22"/>
    <linearGradient id="linear-gradient-26" x1="0.506" y1="0.248" x2="0.445" y2="1.228" gradientUnits="objectBoundingBox">
      <stop offset="0" stop-color="#ff928e"/>
      <stop offset="1" stop-color="#fe7062"/>
    </linearGradient>
    <linearGradient id="linear-gradient-27" x1="10.25" y1="-1.046" x2="-3.14" y2="1.071" gradientUnits="objectBoundingBox">
      <stop offset="0" stop-color="#e1473d"/>
      <stop offset="1" stop-color="#e9605a"/>
    </linearGradient>
    <linearGradient id="linear-gradient-28" x1="11.335" y1="-1.209" x2="-2.056" y2="0.907" xlink:href="#linear-gradient-27"/>
    <linearGradient id="linear-gradient-29" x1="0.933" y1="1.761" x2="0.629" y2="0.615" gradientUnits="objectBoundingBox">
      <stop offset="0" stop-color="#4f52ff"/>
      <stop offset="1" stop-color="#4081e2"/>
    </linearGradient>
  </defs>
  <g id="Group_52" data-name="Group 52" transform="translate(-737.525 -133.161)">
    <path id="Path_90" data-name="Path 90" d="M868.408,841.608a146.838,146.838,0,0,1-22.5,18.44c-73.422,51.254-160.32,36.313-178.78,32.669-27.265-5.387-79.974-15.8-118.088-59.4-57.648-65.962-48.679-169.893-3.955-238.5,8.178-12.545,51.4-82.2,139.219-93.361,53.157-6.766,115.1,6.868,159.977,43.443C938.443,621.666,931.743,776.749,868.408,841.608Z" transform="translate(228.878 -366.625)" fill="url(#linear-gradient)"/>
    <g id="Group_45" data-name="Group 45" transform="translate(55.355 81.509)">
      <g id="Group_40" data-name="Group 40" transform="translate(701.516 65.12)">
        <g id="Group_39" data-name="Group 39" transform="translate(0 0)">
          <g id="Group_17" data-name="Group 17" transform="translate(0 9.426)">
            <g id="Group_9" data-name="Group 9" transform="translate(0 36.875)">
              <g id="Group_3" data-name="Group 3" transform="translate(43.085 38.033)" opacity="0.3">
                <path id="Path_2" data-name="Path 2" d="M926.763,1076.273a1.591,1.591,0,0,1,1.928.91c.706,1.67,1.331,3.381,1.9,5.119a1.594,1.594,0,0,1-1.032,2.009c-.014,0-.014,0-.027.014a1.589,1.589,0,0,1-1.982-1.046c-.53-1.643-1.141-3.272-1.806-4.861a1.6,1.6,0,0,1,.855-2.091C926.655,1076.314,926.709,1076.287,926.763,1076.273Zm3.924,13.374c.054-.014.122-.027.19-.041a1.611,1.611,0,0,1,1.86,1.29c.312,1.792.557,3.6.72,5.4a1.6,1.6,0,0,1-3.191.285c-.149-1.711-.38-3.435-.692-5.132A1.612,1.612,0,0,1,930.687,1089.647Zm.9,13.89a1.46,1.46,0,0,1,.543-.068,1.6,1.6,0,0,1,1.521,1.67c-.081,1.806-.258,3.639-.5,5.431a1.6,1.6,0,1,1-3.177-.434c.231-1.711.394-3.435.475-5.159A1.619,1.619,0,0,1,931.583,1103.537Zm-2.24,13.754a1.668,1.668,0,0,1,.9-.014,1.589,1.589,0,0,1,1.1,1.969c-.489,1.738-1.059,3.489-1.7,5.187a1.6,1.6,0,0,1-3-1.127c.611-1.616,1.154-3.259,1.616-4.929A1.641,1.641,0,0,1,929.343,1117.291Zm-5.255,12.912a1.594,1.594,0,0,1,1.86,2.295c-.869,1.589-1.806,3.163-2.811,4.671a1.6,1.6,0,1,1-2.675-1.751c.95-1.439,1.847-2.933,2.661-4.44A1.63,1.63,0,0,1,924.089,1130.2Zm-7.97,11.419a1.6,1.6,0,0,1,1.67,2.58c-1.195,1.358-2.457,2.688-3.775,3.937a1.6,1.6,0,1,1-2.227-2.308c1.236-1.195,2.444-2.444,3.584-3.747A1.652,1.652,0,0,1,916.119,1141.622Zm-55,20.584a1.612,1.612,0,0,1,.679-.054c1.7.231,3.435.38,5.159.462a1.6,1.6,0,0,1-.149,3.191c-1.806-.081-3.639-.244-5.431-.489a1.6,1.6,0,0,1-1.371-1.792A1.582,1.582,0,0,1,861.116,1162.205Zm44.7-11.215a1.613,1.613,0,0,1,1.765.6,1.59,1.59,0,0,1-.367,2.227c-1.466,1.059-3,2.064-4.548,3a1.6,1.6,0,0,1-1.643-2.756c1.48-.882,2.933-1.846,4.318-2.851A1.666,1.666,0,0,1,905.813,1150.99Zm-30.767,11.5a2.112,2.112,0,0,1,.312-.068c1.711-.163,3.435-.394,5.132-.692a1.6,1.6,0,0,1,.57,3.15c-1.779.326-3.6.57-5.4.733a1.6,1.6,0,0,1-.611-3.123Zm18.628-4.671a1.6,1.6,0,0,1,1.073,3c-1.67.706-3.381,1.344-5.105,1.9a.048.048,0,0,0-.027.014,1.593,1.593,0,0,1-.95-3.041c1.643-.529,3.272-1.141,4.847-1.806A.417.417,0,0,1,893.675,1157.82Z" transform="translate(-849.036 -1076.206)" fill="#7d97f4"/>
                <path id="Path_3" data-name="Path 3" d="M780.464,1690.856a1.519,1.519,0,0,1,.95.014c.787.258,1.589.5,2.39.72a1.6,1.6,0,0,1-.855,3.082c-.842-.231-1.684-.489-2.512-.76a1.6,1.6,0,0,1-1.032-2.009A1.572,1.572,0,0,1,780.464,1690.856Z" transform="translate(-779.327 -1607.342)" fill="#7d97f4"/>
              </g>
              <g id="Group_4" data-name="Group 4" opacity="0.3">
                <path id="Path_4" data-name="Path 4" d="M509.368,1455.286a1.623,1.623,0,0,1,1.9.828c.367.747.747,1.493,1.141,2.213a1.6,1.6,0,1,1-2.824,1.521c-.407-.774-.815-1.561-1.195-2.335a1.6,1.6,0,0,1,.733-2.132C509.218,1455.34,509.3,1455.313,509.368,1455.286Z" transform="translate(-501.954 -1365.727)" fill="#7d97f4"/>
                <path id="Path_5" data-name="Path 5" d="M507.347,798.791c.706-.217,1.412-.421,2.132-.611a1.6,1.6,0,1,1,.815,3.1c-1.656.434-3.286.95-4.874,1.507a1.587,1.587,0,0,1-2.037-.964,1.607,1.607,0,0,1,.964-2.05C505.338,799.429,506.342,799.09,507.347,798.791Zm10.428-2.213a1.593,1.593,0,0,1,.272-.054c1.765-.217,3.571-.367,5.349-.434a1.6,1.6,0,1,1,.122,3.191c-1.684.068-3.394.2-5.078.421a1.6,1.6,0,0,1-.665-3.123Zm-21.127,6.558a1.6,1.6,0,0,1,1.195,2.946c-1.494.774-2.987,1.629-4.413,2.539a1.6,1.6,0,1,1-1.711-2.715c1.507-.95,3.068-1.86,4.657-2.675C496.458,803.2,496.553,803.163,496.648,803.136Zm34.84-6.748a1.537,1.537,0,0,1,.611-.054c1.779.177,3.557.421,5.309.747a1.591,1.591,0,0,1,1.276,1.86,1.611,1.611,0,0,1-1.86,1.29c-1.67-.312-3.367-.543-5.051-.706a1.6,1.6,0,0,1-1.439-1.751A1.657,1.657,0,0,1,531.488,796.388ZM485.27,810.766a1.6,1.6,0,0,1,1.494,2.756c-1.29,1.086-2.553,2.254-3.747,3.449a1.6,1.6,0,0,1-2.267-2.267c1.263-1.263,2.593-2.485,3.951-3.625A1.566,1.566,0,0,1,485.27,810.766Zm-9.436,9.939a1.555,1.555,0,0,1,1.426.258,1.6,1.6,0,0,1,.312,2.24c-1.018,1.344-2,2.756-2.906,4.182a1.6,1.6,0,1,1-2.7-1.724c.95-1.507,1.982-2.987,3.069-4.4A1.571,1.571,0,0,1,475.834,820.705Zm-7.047,11.758a1.549,1.549,0,0,1,1.127.081,1.6,1.6,0,0,1,.787,2.118c-.706,1.548-1.358,3.123-1.928,4.725a1.6,1.6,0,0,1-3.014-1.086c.6-1.67,1.29-3.34,2.023-4.969A1.7,1.7,0,0,1,468.787,832.463Zm-4.3,13.021a1.406,1.406,0,0,1,.788-.027,1.608,1.608,0,0,1,1.236,1.9c-.353,1.656-.638,3.354-.842,5.024a1.595,1.595,0,1,1-3.164-.407c.217-1.765.516-3.544.9-5.3A1.551,1.551,0,0,1,464.483,845.484Zm-1.344,13.645a1.549,1.549,0,0,1,.448-.068,1.594,1.594,0,0,1,1.616,1.575c.027,1.683.122,3.394.285,5.091a1.6,1.6,0,1,1-3.191.312c-.176-1.779-.272-3.571-.3-5.35A1.609,1.609,0,0,1,463.139,859.13Zm1.684,13.6c.027-.014.068-.014.1-.027a1.6,1.6,0,0,1,1.928,1.181c.285,1.208.611,2.43.978,3.625.136.434.272.855.407,1.29a1.6,1.6,0,0,1-1.018,2.01,1.576,1.576,0,0,1-2.009-1.018c-.149-.448-.285-.9-.421-1.358-.38-1.249-.72-2.539-1.032-3.815A1.564,1.564,0,0,1,464.822,872.734Z" transform="translate(-461.998 -796.087)" fill="#7d97f4"/>
                <path id="Path_6" data-name="Path 6" d="M1065.555,818.856a1.561,1.561,0,0,1,.964.014c.828.272,1.656.57,2.471.869a1.6,1.6,0,1,1-1.127,3c-.774-.3-1.561-.57-2.349-.828a1.6,1.6,0,0,1-1.018-2.023A1.636,1.636,0,0,1,1065.555,818.856Z" transform="translate(-982.623 -815.705)" fill="#7d97f4"/>
              </g>
              <g id="Group_8" data-name="Group 8" transform="translate(15.91 16.238)">
                <g id="Group_5" data-name="Group 5">
                  <path id="Path_7" data-name="Path 7" d="M649.5,920.978a.756.756,0,0,0-.869.027l-7.264,5.472a39.651,39.651,0,0,0-12.586-2.553l-4.548-7.875a.739.739,0,0,0-.788-.353l-10.713,2.091a.735.735,0,0,0-.6.625l-1.263,9a39.673,39.673,0,0,0-10.7,7.087l-8.785-2.349a.755.755,0,0,0-.815.3l-6.1,9.043a.756.756,0,0,0,.027.869l5.472,7.264a39.573,39.573,0,0,0-2.553,12.586l-7.875,4.548a.739.739,0,0,0-.353.788l2.091,10.713a.735.735,0,0,0,.625.6l9,1.263a39.676,39.676,0,0,0,7.087,10.7l-2.349,8.785a.755.755,0,0,0,.3.815l9.043,6.1a.756.756,0,0,0,.869-.027l7.264-5.472a39.578,39.578,0,0,0,12.586,2.552l4.548,7.875a.739.739,0,0,0,.788.353l10.713-2.091a.735.735,0,0,0,.6-.625l1.263-9a39.672,39.672,0,0,0,10.7-7.087l8.785,2.349a.755.755,0,0,0,.815-.3l6.1-9.043a.756.756,0,0,0-.027-.869l-5.472-7.264a39.654,39.654,0,0,0,2.553-12.586l7.875-4.548a.739.739,0,0,0,.353-.788l-2.091-10.713a.735.735,0,0,0-.625-.6l-9-1.263a39.676,39.676,0,0,0-7.087-10.7l2.349-8.785a.755.755,0,0,0-.3-.815Z" transform="translate(-579.18 -915.68)" fill="#91bbfa"/>
                </g>
                <g id="Group_6" data-name="Group 6" transform="translate(37.097 37.106)">
                  <path id="Path_8" data-name="Path 8" d="M860.209,1189.436a11.005,11.005,0,1,1-1.507.584A9.82,9.82,0,0,1,860.209,1189.436Zm5.58,18.56a9.389,9.389,0,0,0,1.168-.448,8.409,8.409,0,1,0-11.188-4.032,8.427,8.427,0,0,0,10.02,4.48Z" transform="translate(-852.403 -1188.97)" fill="#bdd0fb"/>
                </g>
                <g id="Group_7" data-name="Group 7" transform="translate(21.006 21.306)">
                  <path id="Path_9" data-name="Path 9" d="M753,1073.768a25.91,25.91,0,0,1,2.688-.665h0c.285-.054.57-.109.869-.149a26.95,26.95,0,0,1,4.3-.353h.543a.627.627,0,0,1,.6.448,1.044,1.044,0,0,1,.027.2.637.637,0,0,1-.652.625,25.3,25.3,0,0,0-5.445.475,25.71,25.71,0,0,0-20.3,30.129,23.633,23.633,0,0,0,.638,2.566,25.688,25.688,0,0,0,49.789-12.4c-.163-.855-.38-1.7-.625-2.539a25.494,25.494,0,0,0-5.472-9.722.542.542,0,0,1-.136-.244.656.656,0,0,1,.19-.665.645.645,0,0,1,.91.054,26.77,26.77,0,0,1,5.743,10.2c.258.869.489,1.765.665,2.661a26.965,26.965,0,0,1-41.547,27.508,26.71,26.71,0,0,1-10.726-14.514,25.92,25.92,0,0,1-.665-2.688,26.906,26.906,0,0,1,18.6-30.93Z" transform="translate(-733.894 -1072.6)" fill="#bdd0fb"/>
                </g>
              </g>
            </g>
            <g id="Group_16" data-name="Group 16" transform="translate(84.22)">
              <g id="Group_10" data-name="Group 10" transform="translate(45.915 18.817)" opacity="0.3">
                <path id="Path_10" data-name="Path 10" d="M1642.307,663.134a.987.987,0,0,1,1.113.407c.462.706.9,1.426,1.317,2.159a.985.985,0,1,1-1.711.978c-.394-.692-.815-1.385-1.263-2.05a.987.987,0,0,1,.285-1.371A1.113,1.113,0,0,1,1642.307,663.134Z" transform="translate(-1611.574 -663.093)" fill="#7d97f4"/>
                <path id="Path_11" data-name="Path 11" d="M1454.743,712.522a.98.98,0,0,1,1.195.57c.557,1.331,1.045,2.716,1.466,4.087.081.285.177.584.258.883a1.023,1.023,0,0,1-.679,1.222.994.994,0,0,1-1.222-.679c-.081-.285-.163-.557-.244-.842a39.124,39.124,0,0,0-1.4-3.9.989.989,0,0,1,.529-1.29A.342.342,0,0,1,1454.743,712.522Zm2.756,9.884a.48.48,0,0,1,.136-.027.985.985,0,0,1,1.127.828,42.251,42.251,0,0,1,.462,5.241.992.992,0,0,1-1.982.054,38.586,38.586,0,0,0-.448-5A1.019,1.019,0,0,1,1457.5,722.406Zm.285,10.251a.889.889,0,0,1,.38-.041.986.986,0,0,1,.883,1.073,45.046,45.046,0,0,1-.828,5.2.988.988,0,1,1-1.928-.434,40.976,40.976,0,0,0,.8-4.956A.943.943,0,0,1,1457.784,732.657Zm-2.254,10.007a1.092,1.092,0,0,1,.625.014.993.993,0,0,1,.6,1.263,44.588,44.588,0,0,1-2.077,4.834.99.99,0,1,1-1.765-.9,43.117,43.117,0,0,0,1.982-4.6A.928.928,0,0,1,1455.53,742.664Zm-4.63,9.151a1.035,1.035,0,0,1,.842.122,1,1,0,0,1,.271,1.371,45.36,45.36,0,0,1-3.191,4.182.991.991,0,0,1-1.494-1.3,41.262,41.262,0,0,0,3.041-3.992A1.132,1.132,0,0,1,1450.9,751.815Zm-6.707,7.753a.97.97,0,0,1,1.018.285.989.989,0,0,1-.068,1.4,43.472,43.472,0,0,1-4.114,3.272.985.985,0,1,1-1.127-1.616,41.189,41.189,0,0,0,3.924-3.123A.85.85,0,0,1,1444.193,759.568Zm-8.391,5.879a.967.967,0,0,1,1.154.489.98.98,0,0,1-.407,1.331,42.4,42.4,0,0,1-4.793,2.172.988.988,0,0,1-.706-1.847,43.23,43.23,0,0,0,4.576-2.064A.515.515,0,0,1,1435.8,765.447ZM1421.152,770c.054-.014.109-.027.177-.041a39.64,39.64,0,0,0,4.3-.747c.217-.054.421-.095.638-.149a.984.984,0,0,1,1.195.72.971.971,0,0,1-.72,1.195c-.231.054-.448.109-.679.163a42.272,42.272,0,0,1-4.508.774.982.982,0,0,1-.407-1.914Z" transform="translate(-1420.453 -705.773)" fill="#7d97f4"/>
              </g>
              <g id="Group_11" data-name="Group 11" opacity="0.3">
                <path id="Path_12" data-name="Path 12" d="M1111.439,526.442a.988.988,0,0,1,.584,1.887,40.187,40.187,0,0,0-4.6,1.765.984.984,0,1,1-.815-1.792,39.069,39.069,0,0,1,4.834-1.86Zm4.9-1.236c.041-.014.068-.014.109-.027a43.459,43.459,0,0,1,5.132-.652.986.986,0,1,1,.122,1.969,39.645,39.645,0,0,0-4.9.625,1,1,0,0,1-1.154-.787A.988.988,0,0,1,1116.34,525.206Zm-14.08,5.417a.99.99,0,0,1,.8,1.792,41.479,41.479,0,0,0-4.046,2.824.986.986,0,0,1-1.222-1.548,41.506,41.506,0,0,1,4.236-2.96A.518.518,0,0,1,1102.26,530.623Zm24.141-6.083a1.368,1.368,0,0,1,.339-.041,40.946,40.946,0,0,1,5.146.611.99.99,0,0,1,.8,1.154,1,1,0,0,1-1.154.8,42.352,42.352,0,0,0-4.9-.584,1,1,0,0,1-.937-1.045A1.029,1.029,0,0,1,1126.4,524.541ZM1094.372,536.9a.972.972,0,0,1,.978.244.988.988,0,0,1,.014,1.4,40.291,40.291,0,0,0-3.245,3.72.987.987,0,1,1-1.561-1.208,42.006,42.006,0,0,1,3.394-3.9A.812.812,0,0,1,1094.372,536.9Zm-6.164,7.984a.951.951,0,0,1,.787.1.98.98,0,0,1,.339,1.358,39.309,39.309,0,0,0-2.254,4.386.988.988,0,0,1-1.806-.8,44.56,44.56,0,0,1,2.363-4.6A1,1,0,0,1,1088.208,544.88Zm-4.06,9.233a1.018,1.018,0,0,1,.57,0,1.007,1.007,0,0,1,.665,1.236,41.891,41.891,0,0,0-1.141,4.806.994.994,0,0,1-1.141.8.983.983,0,0,1-.8-1.141,43.067,43.067,0,0,1,1.195-5.037A.924.924,0,0,1,1084.148,554.113Z" transform="translate(-1082.286 -524.5)" fill="#7d97f4"/>
                <path id="Path_13" data-name="Path 13" d="M1476.181,537.841a1.066,1.066,0,0,1,.584,0c.8.244,1.616.53,2.39.815a.973.973,0,0,1,.57,1.276.983.983,0,0,1-1.276.57c-.747-.285-1.507-.543-2.281-.787a.993.993,0,0,1-.652-1.236A1.037,1.037,0,0,1,1476.181,537.841Z" transform="translate(-1422.087 -535.994)" fill="#7d97f4"/>
              </g>
              <g id="Group_15" data-name="Group 15" transform="translate(9.945 10.744)">
                <g id="Group_12" data-name="Group 12">
                  <path id="Path_14" data-name="Path 14" d="M1202.587,607.185a.511.511,0,0,0-.584.014l-4.861,3.666a26.632,26.632,0,0,0-8.418-1.711l-3.041-5.268a.492.492,0,0,0-.53-.244l-7.169,1.4a.491.491,0,0,0-.394.421l-.842,6.028a25.994,25.994,0,0,0-7.155,4.752l-5.879-1.575a.5.5,0,0,0-.543.2l-4.087,6.056a.511.511,0,0,0,.014.584l3.666,4.861a26.631,26.631,0,0,0-1.711,8.418l-5.268,3.041a.492.492,0,0,0-.245.529l1.4,7.169a.49.49,0,0,0,.421.394l6.028.842a25.994,25.994,0,0,0,4.752,7.155l-1.575,5.879a.5.5,0,0,0,.2.543l6.056,4.087a.511.511,0,0,0,.584-.014l4.861-3.666a26.637,26.637,0,0,0,8.418,1.711l3.041,5.268a.492.492,0,0,0,.53.244l7.169-1.4a.491.491,0,0,0,.394-.421l.842-6.029a25.993,25.993,0,0,0,7.155-4.752l5.879,1.575a.5.5,0,0,0,.543-.2l4.087-6.056a.511.511,0,0,0-.014-.584l-3.666-4.861a26.635,26.635,0,0,0,1.711-8.418l5.268-3.041a.492.492,0,0,0,.244-.53l-1.4-7.169a.491.491,0,0,0-.421-.394l-6.028-.842a26,26,0,0,0-4.752-7.155l1.575-5.879a.5.5,0,0,0-.2-.543Z" transform="translate(-1155.531 -603.631)" fill="#91bbfa"/>
                </g>
                <g id="Group_13" data-name="Group 13" transform="translate(24.68 24.701)">
                  <path id="Path_15" data-name="Path 15" d="M1342.638,785.875a7.47,7.47,0,1,1-4.616,10.333,7.455,7.455,0,0,1,3.584-9.939A9.494,9.494,0,0,1,1342.638,785.875Zm3.734,12.423a7.045,7.045,0,0,0,.747-.285,5.506,5.506,0,0,0-.475-10.156,5.421,5.421,0,0,0-4.2.2h0a5.5,5.5,0,0,0,3.924,10.237Z" transform="translate(-1337.302 -785.557)" fill="#bdd0fb"/>
                </g>
                <g id="Group_14" data-name="Group 14" transform="translate(13.475 13.708)">
                  <path id="Path_16" data-name="Path 16" d="M1267.988,705.394c.6-.176,1.208-.326,1.833-.462a18.6,18.6,0,0,1,3.775-.339h.176a.991.991,0,0,1,.923.706,1.16,1.16,0,0,1,.041.312.985.985,0,0,1-1,.964,16.268,16.268,0,0,0-3.53.312h0l-.19.041a16.453,16.453,0,0,0-10.333,6.87l-.027.027c-.027.027-.041.068-.068.095a16.556,16.556,0,0,0-2.539,12.478,16.631,16.631,0,0,0,30.115,6.1,16.556,16.556,0,0,0,2.539-12.478c-.109-.557-.244-1.1-.407-1.643a16.509,16.509,0,0,0-3.544-6.286,1.067,1.067,0,0,1-.217-.38.971.971,0,0,1,.285-1.018,1,1,0,0,1,1.4.068,18.549,18.549,0,0,1,3.965,7.033c.177.6.339,1.208.462,1.833a18.606,18.606,0,0,1-36.062,8.975c-.177-.611-.34-1.222-.462-1.86A18.636,18.636,0,0,1,1267.988,705.394Z" transform="translate(-1254.774 -704.592)" fill="#bdd0fb"/>
                </g>
              </g>
            </g>
          </g>
          <g id="Group_29" data-name="Group 29" transform="translate(8.744 112.385)">
            <g id="Group_28" data-name="Group 28" clip-path="url(#clip-path)">
              <g id="Group_18" data-name="Group 18" transform="translate(21.33 330.178)">
                <rect id="Rectangle_2" data-name="Rectangle 2" width="12.831" height="138.694" transform="translate(61.995 31.079)" fill="url(#linear-gradient-2)"/>
                <path id="Path_17" data-name="Path 17" d="M886.013,4931.55H773.7v-8.011a.336.336,0,0,1,.339-.339H885.688a.336.336,0,0,1,.339.339v8.011Z" transform="translate(-761.453 -4759.102)" fill="url(#linear-gradient-3)"/>
                <path id="Path_18" data-name="Path 18" d="M824.733,3740.858a13.832,13.832,0,0,1-13.795,13.795H697.295a13.832,13.832,0,0,1-13.795-13.795v-12.464a13.832,13.832,0,0,1,13.795-13.795H810.939a13.832,13.832,0,0,1,13.795,13.795Z" transform="translate(-683.5 -3714.6)" fill="url(#linear-gradient-4)"/>
              </g>
              <g id="Group_25" data-name="Group 25" transform="translate(3.355 1.604)">
                <g id="Group_19" data-name="Group 19" transform="translate(329.087 440.087)">
                  <path id="Path_19" data-name="Path 19" d="M2987.991,4573.091c5.757-2.8,49.816-18.479,60.814-35.234a3.884,3.884,0,0,0-1.9-.76c-12.451-1.494-37.311-2.988-59.348,4.86l-11.677,10.007s-3.937,9.436,3.747,20.95A8.96,8.96,0,0,0,2987.991,4573.091Z" transform="translate(-2974.872 -4535.903)" fill="url(#linear-gradient-5)"/>
                  <path id="Path_20" data-name="Path 20" d="M3079.164,4550.3c-11.011,16.754-55.07,32.437-60.813,35.233a8.888,8.888,0,0,1-8.35-.177.2.2,0,0,0,.041.055,7.456,7.456,0,0,0,8.934,2.729c12.4-4.9,44-18.111,60.379-31.662A3.95,3.95,0,0,0,3079.164,4550.3Z" transform="translate(-3005.23 -4548.345)" fill="url(#linear-gradient-6)"/>
                </g>
                <g id="Group_20" data-name="Group 20" transform="translate(327.566 454.737)">
                  <path id="Path_21" data-name="Path 21" d="M2976.792,4680.992c5.757-2.8,49.816-18.479,60.813-35.234a3.888,3.888,0,0,0-1.9-.76c-12.45-1.494-37.311-2.987-59.347,4.861l-11.677,10.007s-3.937,9.436,3.748,20.95A8.959,8.959,0,0,0,2976.792,4680.992Z" transform="translate(-2963.672 -4643.803)" fill="url(#linear-gradient-7)"/>
                  <path id="Path_22" data-name="Path 22" d="M3067.964,4658.2c-11.011,16.754-55.071,32.437-60.814,35.233a8.888,8.888,0,0,1-8.35-.176c.014.013.027.041.041.054a7.456,7.456,0,0,0,8.934,2.729c12.4-4.9,44-18.112,60.379-31.663A3.95,3.95,0,0,0,3067.964,4658.2Z" transform="translate(-2994.031 -4656.245)" fill="url(#linear-gradient-8)"/>
                </g>
                <g id="Group_21" data-name="Group 21" transform="translate(124.219 287.773)">
                  <path id="Path_23" data-name="Path 23" d="M2916.679,4510.2c-1.7,4.168-5.363,9.287-13.279,13.523l11.514,8.011c4.3.122,7.074-1.114,8.852-2.675a6.468,6.468,0,0,0,.828-8.744Q2920.643,4515.162,2916.679,4510.2Z" transform="translate(-2708.237 -4361.377)" fill="url(#linear-gradient-9)"/>
                  <path id="Path_24" data-name="Path 24" d="M1674.673,3559.284C1581.273,3444.093,1466,3414.1,1466,3414.1l2.919,28.513,194.1,135.735c6.49-3.476,10.183-9.844,12.234-14.324A4.519,4.519,0,0,0,1674.673,3559.284Z" transform="translate(-1466 -3414.1)" fill="url(#linear-gradient-10)"/>
                </g>
                <g id="Group_22" data-name="Group 22" transform="translate(31.797 274.597)">
                  <path id="Path_25" data-name="Path 25" d="M2905.438,4587c-.5,3.979-2.811,11.038-12.138,16.9,3.517,2.715,6.925,5.444,10.169,8.187a5.585,5.585,0,0,0,4.711,1.222c3.218-.652,8.133-2.674,9.586-8.893a5.226,5.226,0,0,0-1.073-4.495C2914.752,4597.6,2910.924,4593.083,2905.438,4587Z" transform="translate(-2607.086 -4414.572)" fill="url(#linear-gradient-11)"/>
                  <path id="Path_26" data-name="Path 26" d="M1084.372,3487.877c-29.124-31.921-100.827-101.438-179.576-130.29A26.834,26.834,0,0,1,889.888,3344L878.1,3319.434s-57.419-13.455-92.8,23.584c0,0,2.159,35.234,46.6,48.119,41.479,12.03,164.4,60.854,236.9,115.558a4.644,4.644,0,0,0,5.621.041,34.953,34.953,0,0,0,10.916-13.985A4.7,4.7,0,0,0,1084.372,3487.877Z" transform="translate(-785.3 -3317.052)" fill="url(#linear-gradient-12)"/>
                </g>
                <path id="Path_27" data-name="Path 27" d="M691.134,2177.139s11.717,5.132,31.8-4.155,74.69-10.21,74.69-10.21-17.691-66.2,21.615-113.576c0,0,31.663,59.266,53.916,68.1l9.966.462v-42.281s-8.459-52.192-61.914-91.173l-16.646-15s-58.533-11.8-98.342,58.017C666.423,2097.167,691.134,2177.139,691.134,2177.139Z" transform="translate(-665.569 -1877.05)" fill="#0d6efd"/>
                <path id="Path_28" data-name="Path 28" d="M1902.944,2000.4c.557-2.933.76-9.8-6.313-18.167a18.481,18.481,0,0,0-21.615-5.485c-10.767,6.028-15.315,25.716-15.315,25.716l11.378-6.069c1.724,5.01,18.533,10.4,18.533,10.4l.1-.041c.163,10.889-.1,42.647-7.821,64.724-3.028,8.649-9.178,24.725,11.134,52.273l11.188-.461C1904.221,2123.306,1929.3,2080.727,1902.944,2000.4Z" transform="translate(-1682.026 -1882.877)" fill="url(#linear-gradient-13)"/>
                <g id="Group_23" data-name="Group 23" transform="translate(130.785)">
                  <path id="Path_29" data-name="Path 29" d="M1552.168,1684.122l-31.174,44.018a7.363,7.363,0,0,0,.652,9.3c4.2,4.48,11.283,10.794,18.914,12.247a5.928,5.928,0,0,0,6.1-2.566l16.578-25.444C1563.234,1721.664,1566.4,1681.691,1552.168,1684.122Z" transform="translate(-1518.924 -1631.145)" fill="url(#linear-gradient-14)"/>
                  <path id="Path_30" data-name="Path 30" d="M1671.518,1455.442c.516.693,17.379,55.369,17.379,55.369l-31.418,8.961-23.679-49.449C1633.786,1470.336,1662.815,1443.86,1671.518,1455.442Z" transform="translate(-1617.582 -1431.072)" fill="url(#linear-gradient-15)"/>
                  <path id="Path_31" data-name="Path 31" d="M1543.036,1341.986l10.007,25.906a5.763,5.763,0,0,0,.9,1.561c1.684,2.1,6.558,7.074,11.975,1.765,4.1-4.019,7.956-7.726,11.636-9.572a5.86,5.86,0,0,1,8.2,3.625,176.725,176.725,0,0,1,5.268,22.688,5.893,5.893,0,0,1-4.616,6.639c-6.4,1.344-17.556,3.286-27.345,3.069a5.848,5.848,0,0,1-5.078-3.272c-3.625-7.318-12.709-25.471-16.13-30.319-3.15-4.453-10.251-4.426-13.863-4.087a5.862,5.862,0,0,1-4.576-1.562c-2.892-2.716-6.761-8.174-1.249-14.963a5.939,5.939,0,0,0-.353-7.9c-3.055-3.164-5.58-8.215-.76-14.569,5.105-6.721,12-6.354,16.646-5.024a5.814,5.814,0,0,0,6.069-2.172,3.053,3.053,0,0,1,1.914-1.086,5.833,5.833,0,0,0,5.105-5.512c.122-4.25,1.955-9.192,8.961-11.6,13.7-4.711,22.715,8.4,23.869,18.343s-14,14.2-23,13.795c-6.232-.285-10.835,5.431-13.062,8.961A5.913,5.913,0,0,0,1543.036,1341.986Z" transform="translate(-1514.354 -1294.616)" fill="#0041a1"/>
                  <path id="Path_32" data-name="Path 32" d="M1590.019,1764.192s-2.743-17.244-9.966-17.882-14.066,5.485-6.626,14.99C1582.687,1773.126,1590.019,1764.192,1590.019,1764.192Z" transform="translate(-1562.627 -1684.942)" fill="url(#linear-gradient-16)"/>
                </g>
                <path id="Path_33" data-name="Path 33" d="M631.08,1991.519s-62.837,40.067-76.591,86.6,17.026,55.682,46.34,59.8l2.2-35.532s-20.529,0-7.44-19.416,48.3-32.369,48.3-32.369S733.088,1966.454,631.08,1991.519Z" transform="translate(-551.11 -1892.866)" fill="#0d6efd"/>
                <path id="Path_34" data-name="Path 34" d="M853.33,2503.945c-.353,0-8.853-.068-11.7-5.445-1.955-3.666-.747-8.8,3.6-15.234,13.089-19.416,47.236-32.138,48.689-32.668a.811.811,0,0,1,1.032.475.8.8,0,0,1-.475,1.032c-.353.122-35.111,13.075-47.9,32.057-3.978,5.906-5.159,10.468-3.517,13.564,2.4,4.521,10.2,4.589,10.278,4.589a.817.817,0,0,1,.815.815A.826.826,0,0,1,853.33,2503.945Z" transform="translate(-801.398 -2293.604)" fill="url(#linear-gradient-17)"/>
                <g id="Group_24" data-name="Group 24" transform="translate(46.382 211.767)">
                  <path id="Path_35" data-name="Path 35" d="M896.055,2887.592s-9.178-15.166,2.906-33.292l81.139,13.428s38.845-6.572,40.692-6.436,27.209,15.75,27.209,15.75-.855,1.806-6.884,1.48-2.077.733-2.077.733l-.217,3.042a8.379,8.379,0,0,1-7.562-2.621c-3.367-3.585-12.736-5.323-12.736-5.323s-19.9,14.7-39.456,7.59Z" transform="translate(-892.717 -2854.3)" fill="url(#linear-gradient-18)"/>
                </g>
              </g>
              <g id="Group_27" data-name="Group 27" transform="translate(92.347 241.802)">
                <g id="Group_26" data-name="Group 26" transform="translate(73.981 10.252)">
                  <path id="Path_36" data-name="Path 36" d="M1756.243,3389.778a4.744,4.744,0,0,1-1.9-.407,4.991,4.991,0,0,1-2.526-6.49l101.071-240.689a4.767,4.767,0,0,1,6.327-2.58,4.991,4.991,0,0,1,2.525,6.49l-101.071,240.689A4.838,4.838,0,0,1,1756.243,3389.778Z" transform="translate(-1751.426 -3139.206)" fill="url(#linear-gradient-19)"/>
                  <path id="Path_37" data-name="Path 37" d="M1951.427,3389.814a4.8,4.8,0,0,1-4.426-2.987l-101.085-240.688a5,5,0,0,1,2.525-6.49,4.777,4.777,0,0,1,6.327,2.58l101.071,240.688a5,5,0,0,1-2.525,6.49A4.633,4.633,0,0,1,1951.427,3389.814Z" transform="translate(-1832.75 -3139.242)" fill="url(#linear-gradient-20)"/>
                </g>
                <path id="Path_38" data-name="Path 38" d="M1473.978,3069.755a9.007,9.007,0,0,0-.543-4.209c-.489-1.167-1.222-1.847-2-1.847H1209.529c-1.018,0-1.969,1.018-2.512,2.7a10.923,10.923,0,0,0-.19,5.621l2.838,12.071c.652,2.77,2.064,4.535,3.612,4.535h256.371c1.439,0,2.675-2.009,2.96-4.793Z" transform="translate(-1206.548 -3063.7)" fill="#0041a1"/>
              </g>
            </g>
          </g>
          <g id="Group_30" data-name="Group 30" transform="translate(213.341 48.833)">
            <path id="Path_39" data-name="Path 39" d="M2075.167,835.433c-34.283,16.375-56.809,50.44-30.183,48.852,49.992-2.987,16.252,24.86,42.539,24.032s66.978-6.422,93.617-34.012.747-34.188-10.047-33.116C2135.547,844.707,2182.566,784.164,2075.167,835.433Z" transform="translate(-2033.278 -814.732)" fill="#bdd6fb"/>
            <path id="Path_40" data-name="Path 40" d="M2256.294,1557.814c.068,3.883,2.933,10.251,9.341,10.142s13.958-6.68,13.89-10.563-5.336-6.938-11.745-6.816S2256.213,1553.931,2256.294,1557.814Z" transform="translate(-2226.013 -1450.665)" fill="#bdd6fb"/>
            <path id="Path_41" data-name="Path 41" d="M2185.3,1691.786a3.528,3.528,0,0,0,3.693,3.34c2.009-.041,5.974-2.037,5.933-3.91s-2.525-3.761-4.521-3.72S2185.272,1689.913,2185.3,1691.786Z" transform="translate(-2164.658 -1568.995)" fill="#bdd6fb"/>
          </g>
          <g id="Group_32" data-name="Group 32" transform="translate(253.848)">
            <path id="Path_42" data-name="Path 42" d="M2540.943,1152.1c-.054-.652-.719-1.208-1.847-1.67,1.222-.679,1.9-1.4,1.847-2.1-.177-2.145-6.979-3.354-15.193-2.688s-14.732,2.946-14.569,5.092c.054.652.72,1.208,1.847,1.67-1.222.679-1.9,1.4-1.847,2.1.054.652.72,1.208,1.847,1.67-1.222.679-1.9,1.4-1.847,2.1.054.652.72,1.208,1.847,1.67-1.222.679-1.9,1.4-1.847,2.1.082.951,1.453,1.711,3.666,2.213a19.629,19.629,0,0,0,.054,2.322c.326,3.951,4.766,7.06,10.658,7.06s10.984-4.236,11.039-8.2a21.536,21.536,0,0,0-.109-2.593c2.811-.937,4.535-2.091,4.44-3.2-.054-.652-.72-1.208-1.847-1.67,1.222-.679,1.9-1.4,1.847-2.1-.054-.652-.72-1.208-1.847-1.67C2540.318,1153.525,2541,1152.805,2540.943,1152.1Z" transform="translate(-2486.798 -1051.717)" fill="url(#linear-gradient-21)"/>
            <g id="Group_31" data-name="Group 31" transform="translate(26.583 98.914)">
              <path id="Path_43" data-name="Path 43" d="M2547.969,1276.515a35.545,35.545,0,0,1-6.517-.529.2.2,0,0,1,.068-.394,42.039,42.039,0,0,0,10.862.339,46.411,46.411,0,0,0,9.111-1.575.2.2,0,0,1,.109.38,47.123,47.123,0,0,1-9.178,1.589C2550.888,1276.447,2549.4,1276.515,2547.969,1276.515Z" transform="translate(-2539.402 -1262.026)" fill="url(#linear-gradient-22)"/>
              <path id="Path_44" data-name="Path 44" d="M2538.989,1242.163a30.928,30.928,0,0,1-8-.869.2.2,0,0,1,.109-.38c2.851.815,7.427,1.059,12.26.679a38.489,38.489,0,0,0,11.921-2.593.194.194,0,1,1,.163.353,38.946,38.946,0,0,1-12.057,2.634C2541.895,1242.109,2540.415,1242.163,2538.989,1242.163Z" transform="translate(-2530.381 -1231.462)" fill="url(#linear-gradient-23)"/>
              <path id="Path_45" data-name="Path 45" d="M2535.968,1214.463a28.735,28.735,0,0,1-8.432-1.018.193.193,0,1,1,.122-.367c2.811.923,7.563,1.235,12.722.815a38.485,38.485,0,0,0,11.921-2.593.194.194,0,1,1,.163.353,38.946,38.946,0,0,1-12.057,2.634C2538.887,1214.4,2537.394,1214.463,2535.968,1214.463Z" transform="translate(-2527.4 -1207.523)" fill="url(#linear-gradient-24)"/>
              <path id="Path_46" data-name="Path 46" d="M2544.512,1186.736a33.38,33.38,0,0,1-7.1-.652.194.194,0,1,1,.081-.38,41.75,41.75,0,0,0,11.405.462,38.856,38.856,0,0,0,11.866-2.566.194.194,0,1,1,.163.353,39.221,39.221,0,0,1-12,2.607C2547.431,1186.682,2545.938,1186.736,2544.512,1186.736Z" transform="translate(-2535.918 -1183.584)" fill="url(#linear-gradient-25)"/>
            </g>
            <path id="Path_47" data-name="Path 47" d="M2350.5,536.393a27.594,27.594,0,0,0-4.969-9.708,64.278,64.278,0,0,1-13.849-35.8c-1.426-24.888,20.638-37.352,40.787-35.655s40.013,16.687,37.841,39.836c-1.344,14.243-9.314,25.051-15.248,31.255a32.891,32.891,0,0,0-7.916,14.026c-1.779,6.436-6.015,14.447-16.1,14.935C2358,555.9,2352.578,543.752,2350.5,536.393Z" transform="translate(-2331.616 -455.074)" fill="url(#linear-gradient-26)"/>
            <path id="Path_48" data-name="Path 48" d="M2646.319,830.734l3.226-21.83c.068-.453.28-.757.479-.679s.3.5.236.957c0,.013-.006.026-.006.039l-3.673,21.623c-.025.162-.106.265-.18.226S2646.3,830.889,2646.319,830.734Z" transform="translate(-2603.586 -735.119)" fill="url(#linear-gradient-27)"/>
            <path id="Path_49" data-name="Path 49" d="M2537.519,837.319l-7.047-25.6a.983.983,0,0,0-1.045-.8.842.842,0,0,0-.516,1.122c0,.015.013.03.013.045l8.025,25.353a.341.341,0,0,0,.394.265C2537.492,837.683,2537.56,837.5,2537.519,837.319Z" transform="translate(-2502.084 -741.397)" fill="url(#linear-gradient-28)"/>
            <path id="Path_51" data-name="Path 51" d="M2795.565,893.806a.668.668,0,0,1-.407-.136.69.69,0,0,1-.136-.964,53.321,53.321,0,0,0,3.286-4.983.687.687,0,1,1,1.194.679,56.087,56.087,0,0,1-3.367,5.119A.732.732,0,0,1,2795.565,893.806Z" transform="translate(-2731.983 -828.684)" fill="#fff" opacity="0.79"/>
            <path id="Path_52" data-name="Path 52" d="M2838.258,646.307a.608.608,0,0,1-.271-.054.687.687,0,0,1-.353-.91,42.042,42.042,0,0,0,.951-31.853.69.69,0,0,1,.339-.91.679.679,0,0,1,.91.339,43.5,43.5,0,0,1-.95,32.98A.679.679,0,0,1,2838.258,646.307Z" transform="translate(-2768.879 -591.138)" fill="#fff" opacity="0.79"/>
          </g>
          <g id="Group_38" data-name="Group 38" transform="translate(253.945 165.152)">
            <g id="Group_36" data-name="Group 36">
              <g id="Group_33" data-name="Group 33">
                <path id="Path_53" data-name="Path 53" d="M2411.543,1822.487c-5.567-13.252-25.716-53.441-61.357-41.031a.543.543,0,0,0,.082,1.046c7.861,1.453,36.985,8.812,60.339,40.515A.542.542,0,0,0,2411.543,1822.487Z" transform="translate(-2347.448 -1764.488)" fill="#91bbfa"/>
                <path id="Path_54" data-name="Path 54" d="M2396.116,1933.695c-8.011-7.549-31.88-36.768-63.557-23.421a.369.369,0,0,0,.095.706c7.834.828,46.72,5.757,63.312,23.353C2396.4,1934.808,2396.591,1934.143,2396.116,1933.695Z" transform="translate(-2332.333 -1874.868)" fill="#91bbfa"/>
                <path id="Path_55" data-name="Path 55" d="M2607.1,1726.948c-.76-9.993-5.228-47.711-29.518-55.5a.2.2,0,0,0-.217.3c2.933,4.128,24.222,34.636,29.368,55.26A.186.186,0,0,0,2607.1,1726.948Z" transform="translate(-2544.064 -1671.434)" fill="#91bbfa"/>
                <path id="Path_56" data-name="Path 56" d="M2483.366,2071.133a.2.2,0,0,0,.244-.326c-4.291-4.277-22.063-19.986-44.616-12.247C2413.428,2067.318,2458.18,2057.474,2483.366,2071.133Z" transform="translate(-2417.913 -2004.173)" fill="#91bbfa"/>
                <path id="Path_57" data-name="Path 57" d="M2781.736,1757.2a.647.647,0,0,1-1.276.109c-2.688-11.853-8.4-44.534,8.214-52.844C2808.361,1694.621,2784.41,1718.449,2781.736,1757.2Z" transform="translate(-2716.88 -1698.061)" fill="#91bbfa"/>
                <path id="Path_58" data-name="Path 58" d="M2801.393,1971.26c2.8-7.277,13.564-29.87,35.967-17.664a.434.434,0,0,1-.176.815,52.723,52.723,0,0,0-35.071,17.284A.427.427,0,0,1,2801.393,1971.26Z" transform="translate(-2737.678 -1912.216)" fill="#91bbfa"/>
                <path id="Path_59" data-name="Path 59" d="M2805.873,2064.99c1.032-4.494,6.4-13.51,33.659-5.255a.139.139,0,0,1-.054.272c-5.363-.557-23.462-1.792-32.342,5.743A.775.775,0,0,1,2805.873,2064.99Z" transform="translate(-2741.56 -2004.114)" fill="#91bbfa"/>
              </g>
              <path id="Path_60" data-name="Path 60" d="M2805.219,2223.34l.013-.923v-.991l-.013-1.982-.027-3.965-.109-7.929c-.068-5.282-.177-10.563-.285-15.845-.245-10.563-.543-21.113-1.018-31.649s-1.127-21.072-2.145-31.568c-.516-5.241-1.141-10.482-2-15.668A88.324,88.324,0,0,0,2796,2097.49l.475-.19a56.149,56.149,0,0,1,2.621,7.535l.53,1.928c.163.638.312,1.29.461,1.942l.462,1.942.407,1.942c1.059,5.2,1.874,10.455,2.512,15.709s1.141,10.536,1.575,15.818c.407,5.282.706,10.563.964,15.859.231,5.282.394,10.577.53,15.872.081,5.3.163,10.577.136,15.872,0,5.3-.082,10.577-.217,15.872l-.285,7.929-.177,3.965-.122,1.982-.068.991c-.027.34-.041.638-.109,1.059Z" transform="translate(-2733.045 -2039.478)" fill="#91bbfa"/>
              <g id="Group_34" data-name="Group 34" transform="translate(57.396 51.623)">
                <path id="Path_61" data-name="Path 61" d="M2931.58,2152.692c3.72-8.88,17.23-35.8,41.1-27.495a.367.367,0,0,1-.054.706c-5.268.978-24.779,5.906-40.42,27.142A.361.361,0,0,1,2931.58,2152.692Z" transform="translate(-2907.583 -2113.853)" fill="#91bbfa"/>
                <path id="Path_62" data-name="Path 62" d="M2932.1,2227.223c5.363-5.064,21.357-24.63,42.579-15.7a.248.248,0,0,1-.068.475c-5.241.557-31.3,3.856-42.416,15.655C2931.9,2227.969,2931.792,2227.521,2932.1,2227.223Z" transform="translate(-2907.904 -2187.827)" fill="#91bbfa"/>
                <path id="Path_63" data-name="Path 63" d="M2937,2088.828c.516-6.693,3.5-31.961,19.782-37.175a.133.133,0,0,1,.149.2c-1.955,2.77-16.225,23.2-19.674,37.026A.134.134,0,0,1,2937,2088.828Z" transform="translate(-2912.294 -2051.646)" fill="#91bbfa"/>
                <path id="Path_64" data-name="Path 64" d="M2923.661,2319.307a.136.136,0,0,1-.163-.217c2.878-2.865,14.772-13.387,29.9-8.2C2970.517,2316.755,2940.538,2310.156,2923.661,2319.307Z" transform="translate(-2900.588 -2274.467)" fill="#91bbfa"/>
                <path id="Path_65" data-name="Path 65" d="M2865.571,2108.979a.433.433,0,0,0,.855.068c1.806-7.943,5.635-29.83-5.5-35.4C2847.73,2067.065,2863.779,2083.019,2865.571,2108.979Z" transform="translate(-2842.091 -2069.379)" fill="#91bbfa"/>
                <path id="Path_66" data-name="Path 66" d="M2779.3,2252.453c-1.874-4.874-9.083-20.013-24.086-11.826a.288.288,0,0,0,.122.543,35.3,35.3,0,0,1,23.489,11.582A.285.285,0,0,0,2779.3,2252.453Z" transform="translate(-2755.062 -2212.908)" fill="#91bbfa"/>
                <path id="Path_67" data-name="Path 67" d="M2786.612,2315.208c-.692-3.014-4.277-9.043-22.552-3.517-.109.027-.081.2.028.19,3.584-.367,15.722-1.195,21.67,3.856A.533.533,0,0,0,2786.612,2315.208Z" transform="translate(-2762.778 -2274.44)" fill="#91bbfa"/>
              </g>
              <path id="Path_68" data-name="Path 68" d="M2900.334,2425.819c-.054-.339-.054-.557-.082-.815l-.041-.747-.082-1.48c-.055-.991-.1-1.982-.123-2.96l-.19-5.934c-.136-3.951-.136-7.916-.163-11.867s-.014-7.916.054-11.867.176-7.916.353-11.867.38-7.916.665-11.867.652-7.9,1.141-11.839l.38-2.947.448-2.946c.313-1.955.652-3.924,1.073-5.866.19-.977.421-1.941.665-2.906.123-.489.231-.964.367-1.453l.421-1.439a41.467,41.467,0,0,1,2.037-5.621l.475.19a54.828,54.828,0,0,0-1.534,5.676l-.312,1.439c-.095.476-.176.964-.258,1.453l-.258,1.453-.231,1.453c-.149.964-.3,1.942-.421,2.919s-.285,1.942-.38,2.919q-.346,2.933-.652,5.865c-.76,7.834-1.3,15.709-1.684,23.584s-.652,15.763-.855,23.666c-.108,3.951-.136,7.9-.217,11.84l-.068,5.92-.014,2.96v1.48l.014,1.412Z" transform="translate(-2822.62 -2241.793)" fill="#91bbfa"/>
              <g id="Group_35" data-name="Group 35" transform="translate(15.107 71.33)">
                <path id="Path_69" data-name="Path 69" d="M2483.382,2315.592c-4.766-7.766-21.045-30.97-39.633-19.226a.361.361,0,0,0,.177.652c4.616.068,21.941,1.534,38.995,19.008C2483.192,2316.311,2483.6,2315.944,2483.382,2315.592Z" transform="translate(-2443.6 -2280.03)" fill="#91bbfa"/>
                <path id="Path_70" data-name="Path 70" d="M2489.038,2385.086c-5.445-3.9-22.484-19.755-38.723-7.862a.243.243,0,0,0,.136.435c4.521-.339,27.06-1.467,38.574,7.848C2489.336,2385.751,2489.35,2385.317,2489.038,2385.086Z" transform="translate(-2449.323 -2348.968)" fill="#91bbfa"/>
                <path id="Path_71" data-name="Path 71" d="M2579.953,2245.247c-1.656-6.232-8.8-29.585-23.448-31.853-.109-.013-.163.123-.095.217,2.159,2.295,17.908,19.24,23.326,31.717A.116.116,0,0,0,2579.953,2245.247Z" transform="translate(-2541.067 -2211.138)" fill="#91bbfa"/>
                <path id="Path_72" data-name="Path 72" d="M2556.466,2460.2c.136.054.217-.15.095-.231-2.946-2.227-14.895-10.224-26.666-2.865C2516.561,2465.425,2540.594,2454.319,2556.466,2460.2Z" transform="translate(-2514.823 -2419.124)" fill="#91bbfa"/>
                <path id="Path_73" data-name="Path 73" d="M2699.781,2232.984a.368.368,0,0,1-.706.2c-2.973-7.2-10.2-27.223-1.833-34.3C2707.126,2190.513,2696.549,2208.191,2699.781,2232.984Z" transform="translate(-2659.428 -2196.784)" fill="#91bbfa"/>
                <path id="Path_74" data-name="Path 74" d="M2735.98,2360.926c.679-4.9,3.992-20.366,18.126-15.1a.283.283,0,0,1,0,.53,28.968,28.968,0,0,0-17.664,14.759A.252.252,0,0,1,2735.98,2360.926Z" transform="translate(-2696.279 -2324.658)" fill="#91bbfa"/>
                <path id="Path_75" data-name="Path 75" d="M2740.1,2424.382c.027-2.946,1.955-9.232,18.343-6.992.095.013.109.177,0,.177-3.1.231-13.456,1.439-17.542,7.169C2740.657,2425.1,2740.1,2424.857,2740.1,2424.382Z" transform="translate(-2699.843 -2387.028)" fill="#91bbfa"/>
              </g>
              <path id="Path_76" data-name="Path 76" d="M2751.711,2536.764l-.462-2.444-.489-2.5-1.018-5-2.091-9.966c-.706-3.327-1.453-6.639-2.2-9.939s-1.494-6.626-2.281-9.925q-2.383-9.9-5.187-19.674l-.72-2.444-.747-2.431c-.5-1.616-1-3.231-1.562-4.833a69.475,69.475,0,0,0-3.856-9.355l.435-.258a38.136,38.136,0,0,1,2.485,4.494c.38.774.747,1.548,1.059,2.335.339.787.665,1.575.964,2.376,1.249,3.177,2.362,6.408,3.367,9.667,2,6.517,3.639,13.129,5.187,19.755q1.141,4.969,2.227,9.966,1.018,4.99,1.982,10.007c.638,3.34,1.262,6.68,1.819,10.034l.829,5.037.394,2.525.177,1.263.081.638c.027.218.068.408.082.693Z" transform="translate(-2676.958 -2351.204)" fill="#91bbfa"/>
            </g>
            <g id="Group_37" data-name="Group 37" transform="translate(60.347 152.525)">
              <path id="Path_77" data-name="Path 77" d="M2779.388,2794.8h21.71c1.426,0,2.471,2.145,2.159,4.385-1.385,9.749-3.055,19.633-6.463,29.681-.625,1.86-1.833,3.014-3.136,3.014h-7.088c-1.29,0-2.471-1.141-3.082-2.974a145.824,145.824,0,0,1-6.653-29.124C2776.551,2797.189,2777.773,2794.8,2779.388,2794.8Z" transform="translate(-2776.794 -2794.8)" fill="url(#linear-gradient-29)"/>
            </g>
          </g>
        </g>
      </g>
    </g>
    <g id="Group_49" data-name="Group 49" transform="translate(1048.941 184.745)">
      <g id="Illustration" transform="translate(0 0)">
        <g id="Group_48" data-name="Group 48" transform="translate(0 0)">
          <path id="Path_85" data-name="Path 85" d="M359.18,1840.8a5.658,5.658,0,0,1-1.549,4.557,4.886,4.886,0,0,1-3.542,1.723c-.05,0-.1,0-.168,0a3.716,3.716,0,0,1,.075-1.77,6.105,6.105,0,0,1,4.639-4.432c.113-.029.227-.052.341-.077Z" transform="translate(-343.116 -1840.8)" fill="#fff"/>
          <path id="Path_86" data-name="Path 86" d="M207.226,1939.375a5.5,5.5,0,0,0-2.908,5.448,5.676,5.676,0,0,0,3.672,4.987c-.226.477-.435.958-.679,1.421a17.648,17.648,0,0,1-2.871,4.131,4.758,4.758,0,0,1-1.675,1.183,3.266,3.266,0,0,1-2.666-.189,6.684,6.684,0,0,0-2.152-.677,6.024,6.024,0,0,0-3.244.585,4.5,4.5,0,0,1-1.628.481,3.374,3.374,0,0,1-2.32-.763,10.488,10.488,0,0,1-2.316-2.662,16.381,16.381,0,0,1-2.611-6.633,11.033,11.033,0,0,1,.325-5.193,6.992,6.992,0,0,1,1.863-2.882,6.832,6.832,0,0,1,2.8-1.661,5.847,5.847,0,0,1,3.606.176c.579.195,1.155.4,1.742.571a4.351,4.351,0,0,0,2.866-.23,9.728,9.728,0,0,1,2.444-.69,5.85,5.85,0,0,1,4.14,1.1,10.865,10.865,0,0,1,1.073.9A7.564,7.564,0,0,1,207.226,1939.375Z" transform="translate(-185.667 -1930.616)" fill="#fff"/>
        </g>
      </g>
    </g>
    <line id="Line_1" data-name="Line 1" y1="38" x2="38" transform="translate(1030.5 167.5)" fill="none" stroke="#fff" stroke-linecap="round" stroke-width="2"/>
    <g id="Group_50" data-name="Group 50" transform="translate(1025.785 158.865)">
      <g id="Illustration-2" data-name="Illustration" transform="translate(0)">
        <g id="Group_43" data-name="Group 43">
          <path id="Path_79" data-name="Path 79" d="M-473.224,2164.8c.026.02.052.043.08.061a.538.538,0,0,1,.111.925q-.6.612-1.211,1.209c-.13.126-.168.194.011.33a6.3,6.3,0,0,1,2.526,4.384c.028.215.04.429.048.645,0,.124-.044.176-.166.167-.052,0-.1,0-.156,0q-6.327,0-12.655.006c-.26,0-.343-.057-.325-.327a6.37,6.37,0,0,1,2.533-4.842c.213-.165.184-.242.018-.4-.364-.345-.712-.706-1.067-1.06-.458-.458-.437-.738.081-1.1h.259a1.778,1.778,0,0,1,.453.334c.405.413.823.813,1.223,1.231a.273.273,0,0,0,.376.064,6.367,6.367,0,0,1,2.787-.573,6.37,6.37,0,0,1,2.785.584.245.245,0,0,0,.334-.057c.334-.35.681-.687,1.023-1.027a2.4,2.4,0,0,1,.671-.556Zm-7.863,5.763a.824.824,0,0,0,.833-.837.847.847,0,0,0-.83-.822.856.856,0,0,0-.835.82A.829.829,0,0,0-481.087,2170.563Zm5.54,0a.828.828,0,0,0,.845-.826.855.855,0,0,0-.821-.833.846.846,0,0,0-.843.834A.824.824,0,0,0-475.547,2170.563Z" transform="translate(489.413 -2164.8)" fill="#fff"/>
          <path id="Path_81" data-name="Path 81" d="M-478.267,2300.691c2.119,0,4.237,0,6.356-.006.247,0,.295.076.294.3q-.01,5.319-.006,10.637a2.217,2.217,0,0,1-.024.439,1.009,1.009,0,0,1-1,.822c-.3.01-.606.017-.908,0-.214-.012-.279.052-.277.271.011,1.133.007,2.265,0,3.4a1.794,1.794,0,0,1-.466,1.333,1.548,1.548,0,0,1-1.673.465,1.546,1.546,0,0,1-1.161-1.354c-.117-1.2-.027-2.4-.045-3.6-.008-.508,0-.508-.5-.508s-.986.008-1.479,0c-.185,0-.232.059-.231.236.007,1.159,0,2.318,0,3.477a1.736,1.736,0,0,1-.71,1.507,1.516,1.516,0,0,1-1.591.192,1.564,1.564,0,0,1-1.006-1.34c-.1-1.242-.021-2.488-.039-3.733,0-.335,0-.327-.334-.337a4.825,4.825,0,0,1-1.11-.047.986.986,0,0,1-.751-.915c-.008-.121-.007-.242-.007-.363q0-5.266,0-10.533c0-.387-.043-.339.35-.34Q-481.419,2300.689-478.267,2300.691Z" transform="translate(489.375 -2291.869)" fill="#fff"/>
          <path id="Path_82" data-name="Path 82" d="M-550.22,2306.323c0,1.28.007,2.56,0,3.84a1.65,1.65,0,0,1-1.486,1.677,1.663,1.663,0,0,1-1.791-1.34,3.326,3.326,0,0,1-.046-.593q0-3.671,0-7.342a1.732,1.732,0,0,1,1.486-1.781,1.673,1.673,0,0,1,1.825,1.545c.023,1.331.006,2.663.006,4Z" transform="translate(553.546 -2291.95)" fill="#fff"/>
          <path id="Path_83" data-name="Path 83" d="M-259.307,2306.518c0,1.254,0,2.508,0,3.762a1.713,1.713,0,0,1-1.211,1.711,1.663,1.663,0,0,1-2.1-1.455c-.019-.362-.01-.726-.01-1.089,0-2.231.014-4.463-.008-6.694a1.768,1.768,0,0,1,1.168-1.688,1.663,1.663,0,0,1,2.119,1.279,3.194,3.194,0,0,1,.043.515C-259.306,2304.079-259.307,2305.3-259.307,2306.518Z" transform="translate(281.512 -2292.156)" fill="#fff"/>
        </g>
      </g>
    </g>
  </g>
</svg>
