<svg xmlns="http://www.w3.org/2000/svg" width="46" height="46" viewBox="0 0 46 46">
  <g id="Group_54" data-name="Group 54" transform="translate(-6246 -158)">
    <rect id="Rectangle_7" data-name="Rectangle 7" width="46" height="46" rx="6" transform="translate(6246 158)" fill="#6e1cbf"/>
    <g id="Group_53" data-name="Group 53" transform="translate(6128.005 -492.998)">
      <path id="Path_93" data-name="Path 93" d="M180.922,737.6a7.178,7.178,0,0,0-5.6-2.566c-.535.011-1.271,0-1.513-.576-.207-.493.4-.844.68-1.219q3.919-5.164,7.87-10.3c.791-1.015,1.625-2,2.36-3.054.557-.8,2.447-.727,2.447-.727s3.1.012,4.634.879a6.093,6.093,0,0,1,3.029,4.041c.151.625-.146.874-.7,1.052a8.186,8.186,0,0,0-2.492,1.206,5.762,5.762,0,0,0-.837,7.938c.242.3.208.532-.091.819a14.934,14.934,0,0,1-3.548,2.76,7.927,7.927,0,0,1-3.057.768C183.826,738.628,181.642,738.369,180.922,737.6Z" transform="translate(-38.294 -48.676)" fill="#fff"/>
      <path id="Path_94" data-name="Path 94" d="M162.475,727.78q-2,2.6-4,5.2a1.2,1.2,0,0,1-1.607.307s0-8.5,0-12.419c0-1.189.012-1.2,1.228-1.2,3.111,0,3.585-.008,6.7,0,.3,0,3.351-.14,3.508.143.169.3-.207.539-.386.776Q165.2,724.188,162.475,727.78Z" transform="translate(-26.026 -51.329)" fill="#fff"/>
      <path id="Subtraction_1" data-name="Subtraction 1" d="M9.444,8.132h0c-.067,0-6.788-.023-8.621-.035-.42,0-.634-.057-.739-.188s-.111-.342-.021-.75a6.28,6.28,0,0,1,3.169-4.48c.324-.175.492-.345.53-.535a.84.84,0,0,0-.267-.662A7.206,7.206,0,0,1,2.93.638l0,0L2.813.446,2.794.415C2.72.3,2.628.15,2.8.04A.243.243,0,0,1,2.933,0,.364.364,0,0,1,3.2.175L3.33.352c.257.355.522.723.754,1.1a.845.845,0,0,0,.75.5,1.347,1.347,0,0,0,.336-.048,11.526,11.526,0,0,1,2.869-.37,11.179,11.179,0,0,1,2.816.364,1.488,1.488,0,0,0,.374.055.807.807,0,0,0,.731-.469c.2-.332.425-.655.645-.967l.18-.257c.079-.113.177-.254.309-.254a.245.245,0,0,1,.125.039.222.222,0,0,1,.112.136.5.5,0,0,1-.117.338l-.089.141a10.681,10.681,0,0,1-.6.89.787.787,0,0,0-.241.633c.039.165.193.307.469.436a6.152,6.152,0,0,1,1.964,1.62.96.96,0,0,1,.28.777,1.63,1.63,0,0,1-.857,1.027A18.018,18.018,0,0,1,9.444,8.131ZM11.5,4.078a.831.831,0,0,0-.892.908.805.805,0,0,0,.217.6.938.938,0,0,0,.683.25h.006a.894.894,0,0,0,.9-.869.871.871,0,0,0-.886-.885Zm-6.964,0h0a.828.828,0,0,0-.881.877.83.83,0,0,0,.888.877h.02a.822.822,0,0,0,.861-.884.848.848,0,0,0-.884-.869Z" transform="translate(130.875 659.031)" fill="#fff" stroke="rgba(0,0,0,0)" stroke-miterlimit="10" stroke-width="1"/>
      <path id="Path_96" data-name="Path 96" d="M130.5,725.748c0,1.244.016,2.488-.005,3.731a1.37,1.37,0,0,1-1.525,1.47c-1.01.03-1.7-.464-1.713-1.389q-.061-3.885,0-7.772a1.5,1.5,0,0,1,1.669-1.385,1.43,1.43,0,0,1,1.564,1.458c.027,1.295.007,2.591.007,3.887Z" transform="translate(-1 -51.976)" fill="#fff"/>
      <path id="Path_97" data-name="Path 97" d="M175.874,702.647q-4.1,5.37-8.207,10.737c-.2.255-.317.7-.824.32-.392-.295-.471-.492-.141-.911,1.2-1.526,2.364-3.083,3.535-4.633.295-.39.565-.8.846-1.2q2.415-3.137,4.829-6.276,2.078-2.716,4.137-5.447c.229-.3.383-.56.845-.219.491.362.286.59.031.926Q178.39,699.29,175.874,702.647Z" transform="translate(-33.153 -29.407)" fill="#fff"/>
      <path id="Path_99" data-name="Path 99" d="M261.3,689.956a1.311,1.311,0,0,1-.3,1.427,6.274,6.274,0,0,1-5.616,2.793c-1.285-.41-1.285-.41-.45-1.5.315-.41.619-.829.941-1.234a3.785,3.785,0,0,1,3.022-1.494C259.7,689.937,260.5,689.954,261.3,689.956Z" transform="translate(-106.339 -24.259)" fill="#fff"/>
    </g>
  </g>
</svg>
